<?xml version="1.0" standalone="no"?>
<!DOCTYPE svg PUBLIC "-//W3C//DTD SVG 20010904//EN"
 "http://www.w3.org/TR/2001/REC-SVG-20010904/DTD/svg10.dtd">
<svg version="1.0" xmlns="http://www.w3.org/2000/svg"
 width="1024.000000pt" height="1024.000000pt" viewBox="0 0 1024.000000 1024.000000"
 preserveAspectRatio="xMidYMid meet">

<g transform="translate(0.000000,1024.000000) scale(0.100000,-0.100000)"
fill="#000000" stroke="none">
<path d="M2862 8339 c-235 -30 -468 -136 -630 -286 -171 -156 -270 -329 -328
-573 -17 -71 -19 -199 -22 -2340 -2 -1637 0 -2291 8 -2358 15 -121 51 -254 94
-344 149 -311 400 -510 771 -611 l80 -22 2190 -3 c2430 -3 2300 -6 2504 63
383 129 646 425 739 830 14 63 16 299 20 2300 2 1591 0 2265 -8 2353 -29 320
-177 585 -435 779 -106 80 -282 157 -460 200 -65 16 -228 18 -2265 19 -1207 1
-2223 -2 -2258 -7z m2587 -375 c46 -19 97 -68 124 -119 l22 -40 3 -1119 c3
-989 5 -1120 18 -1134 45 -44 95 -124 114 -182 18 -53 21 -82 18 -160 -3 -81
-8 -105 -35 -163 -36 -76 -116 -166 -181 -204 -180 -106 -406 -77 -553 70
-207 207 -171 529 77 694 l54 36 2 1107 3 1107 28 36 c16 21 40 45 54 54 65
43 173 50 252 17z m-860 -31 c60 -45 61 -50 61 -484 l0 -396 -32 -41 c-43 -54
-101 -124 -418 -507 -146 -176 -342 -413 -434 -527 -137 -168 -177 -212 -213
-229 -81 -39 -201 -22 -255 38 -36 40 -48 89 -48 203 0 131 7 152 80 235 30
33 110 127 179 210 330 391 488 579 640 758 51 59 89 107 86 107 -7 0 -271
-141 -320 -170 -16 -10 -212 -117 -435 -238 -223 -121 -430 -236 -460 -255
-30 -19 -88 -52 -127 -73 l-73 -38 0 -1271 0 -1271 63 -36 c61 -34 226 -130
912 -528 453 -263 607 -351 1027 -592 l346 -199 144 72 c79 39 278 141 443
226 309 160 418 216 1000 518 187 96 400 206 472 243 l133 67 0 241 0 240 29
46 c16 25 50 60 74 77 69 47 207 111 240 111 51 0 98 -30 118 -74 17 -38 19
-73 19 -437 0 -436 -3 -465 -61 -513 -16 -14 -185 -104 -376 -202 -192 -97
-388 -198 -438 -224 -109 -57 -267 -139 -650 -338 -159 -82 -465 -241 -680
-352 -341 -178 -397 -204 -445 -208 -81 -6 -29 -33 -760 391 -151 88 -315 183
-365 212 -901 519 -1632 950 -1664 979 -18 17 -42 49 -52 71 -18 38 -19 99
-19 1489 l0 1449 25 43 c31 53 51 67 212 153 218 116 565 301 628 336 33 18
125 67 205 110 80 43 276 149 435 235 160 87 327 176 372 199 45 22 105 61
132 85 77 69 121 88 185 81 22 -2 51 -12 65 -22z m41 -2070 c-11 -26 -45 -78
-75 -117 -105 -138 -135 -240 -135 -464 0 -77 -5 -141 -11 -156 -7 -14 -28
-33 -47 -42 -95 -45 -237 37 -304 175 -30 62 -30 160 0 218 22 41 87 113 104
113 4 0 8 112 8 248 0 137 3 324 7 416 l6 167 99 122 c54 67 158 195 231 285
l132 164 3 -542 c2 -525 2 -543 -18 -587z m1931 947 c220 -42 389 -240 389
-456 0 -135 -43 -238 -140 -334 -107 -106 -217 -147 -365 -137 -142 10 -243
64 -337 182 -65 80 -90 148 -96 261 -7 149 35 260 138 358 114 109 262 154
411 126z m1157 -359 c48 -25 87 -66 106 -113 14 -32 16 -114 16 -601 0 -625
-1 -636 -62 -693 -18 -17 -152 -93 -298 -169 -226 -118 -497 -260 -697 -365
l-52 -28 43 -11 c56 -14 90 -41 115 -94 18 -36 21 -62 21 -157 0 -127 -18
-183 -68 -218 -15 -10 -126 -70 -247 -132 -121 -62 -375 -194 -565 -293 -886
-464 -840 -441 -883 -433 -18 3 -161 81 -318 173 -156 92 -333 192 -393 224
-59 32 -119 68 -133 81 -57 52 -1006 1132 -1037 1180 -15 23 -17 46 -14 157 3
148 11 167 89 211 35 20 57 25 110 24 120 -1 61 59 887 -898 96 -111 198 -229
228 -262 42 -49 78 -76 176 -131 68 -38 191 -109 274 -157 l151 -87 164 87
c90 47 243 127 339 176 320 166 745 391 775 412 24 17 26 21 12 24 -9 2 -133
-56 -275 -130 -549 -284 -543 -282 -628 -258 -65 18 -100 51 -120 113 -30 92
-42 102 -230 193 -96 45 -174 85 -174 88 0 3 12 1 27 -5 53 -20 165 -39 229
-39 94 0 178 32 430 162 192 99 227 121 282 177 106 105 152 226 152 401 0
102 25 142 129 203 72 42 404 216 781 410 200 102 230 123 268 180 27 40 27
43 32 252 l5 212 30 49 c31 50 87 89 149 105 45 12 132 2 174 -20z"/>
<path d="M6976 5135 c-181 -92 -287 -149 -509 -275 -32 -18 -55 -35 -52 -38
12 -12 740 369 779 408 26 26 -29 2 -218 -95z"/>
</g>
</svg>
